<?xml version="1.0" encoding="utf-8"?>
<!-- Generator: Adobe Illustrator 27.9.0, SVG Export Plug-In . SVG Version: 6.00 Build 0)  -->
<svg version="1.1" id="S_SDKLineTool_Lg_N_2x" xmlns="http://www.w3.org/2000/svg" xmlns:xlink="http://www.w3.org/1999/xlink"
	 x="0px" y="0px" viewBox="0 0 44 36" style="enable-background:new 0 0 44 36;" xml:space="preserve">
<style type="text/css">
	.st0{fill:#FFFFFF;}
</style>
<g>
	<path class="st0" d="M35.8,12.4h-1.2c-0.1-1.4-0.2-2.5-0.3-3.3s-0.2-1.5-0.6-2.3c-0.2-0.7-0.6-1.3-0.8-1.6c-0.2-0.5-0.7-0.8-1.3-1
		c-0.6-0.4-1.3-0.6-2.1-0.7s-1.8-0.1-3-0.1c-1.4,0-2.3,0-2.6,0.1c-0.3,0.1-0.6,0.2-0.7,0.6c-0.1,0.2-0.1,0.7-0.1,1.2v1.8
		C22.6,7,22.1,7,21.6,7c-0.8,0-1.6,0.1-2.3,0.3v-3c0-0.2-0.1-0.3-0.2-0.5c-0.5-0.2-0.8-0.3-1.1-0.3c-0.3-0.1-1.2-0.1-2.4-0.1
		s-2.2,0-3,0.1s-1.5,0.2-2.1,0.6C9.9,4.3,9.6,4.7,9.2,5C8.7,5.4,8.4,5.9,8.2,6.7C7.9,7.3,7.8,8.2,7.7,9c-0.1,0.8-0.2,1.9-0.4,3.3
		H6.2L7.1,2h28L35.8,12.4z"/>
	<path class="st0" d="M23.2,12.3v10.6c-0.4,0.1-0.9,0.2-1.4,0.3h-0.3c-0.7,0-1.5-0.2-2.2-0.5V12.5c0.7-0.3,1.5-0.5,2.2-0.5
		C22.1,12,22.7,12.1,23.2,12.3z"/>
	<path class="st0" d="M30,31.6V33c-1.3-0.1-4.2-0.1-8.8-0.1s-7.5,0-8.6,0.1v-1.4h1.9c1.5,0,2.7-0.1,3.4-0.2c0.7-0.2,1.2-0.4,1.3-0.7
		c0.1-0.2,0.2-0.7,0.2-1.3V28c0.7,0.1,1.4,0.2,2.2,0.2c0.6,0,1.1,0,1.6-0.1v1.3c0,0.6,0.1,1.1,0.2,1.3c0.1,0.2,0.6,0.5,1.3,0.7
		c0.7,0.2,1.9,0.2,3.4,0.2H30z"/>
</g>
<g>
	<g>
		<path class="st0" d="M21.6,26.4c-2.2,0-4.3-0.8-5.9-2.3c-3.6-3.3-3.9-8.9-0.6-12.5S24,7.7,27.6,11l-1.1,1.2
			c-3-2.7-7.6-2.5-10.3,0.5s-2.5,7.6,0.5,10.3c1.4,1.3,3.3,2,5.2,1.9c1.9-0.1,3.7-0.9,5-2.4c0.5-0.5,0.9-1.1,1.2-1.7l1.4,0.7
			c-0.4,0.7-0.8,1.4-1.4,2.1c-1.6,1.8-3.8,2.8-6.1,2.9C21.9,26.4,21.7,26.4,21.6,26.4z"/>
	</g>
	<g>
		<polygon class="st0" points="25.4,21.2 29.6,16.6 31.5,22.6 		"/>
	</g>
</g>
</svg>
