<?xml version="1.0" encoding="utf-8"?>
<!-- Generator: Adobe Illustrator 27.9.0, SVG Export Plug-In . SVG Version: 6.00 Build 0)  -->
<svg version="1.1" id="S_SDKTailArrowTool_Lg_N_2x" xmlns="http://www.w3.org/2000/svg" xmlns:xlink="http://www.w3.org/1999/xlink"
	 x="0px" y="0px" viewBox="0 0 44 36" style="enable-background:new 0 0 44 36;" xml:space="preserve">
<style type="text/css">
	.st0{fill-rule:evenodd;clip-rule:evenodd;fill:#1D1D1B;}
</style>
<g>
	<g>
		<path class="st0" d="M9.7,18c0-3.7,0-7.4,0-11.2c0-1.2,0.5-2.3,1.3-3.2c0.8-0.9,1.7-1.4,2.9-1.6c0.1,0,0.2,0,0.3,0
			C15.8,2,17.4,2,18.9,2c1.9,0,3.9,0,5.8,0.1c0.4,0,0.9,0.2,1.2,0.5c0.6,0.5,1.2,1,1.8,1.5c1.7,1.7,3.5,3.5,5.2,5.2
			c0.4,0.4,0.7,0.8,1,1.3c0.2,0.4,0.3,0.9,0.3,1.4c0,5.9,0,11.8,0,17.7c0,0.8-0.4,1.5-0.9,2.2c-0.9,1.3-2.2,2-3.8,2
			c-0.8,0-1.6,0-2.4,0.1c-4.1,0-8.2,0-12.4,0c-1,0-2-0.2-2.8-0.8c-1-0.7-1.7-1.6-2.1-2.8c-0.2-0.5-0.2-1-0.2-1.5
			C9.7,25.3,9.7,21.6,9.7,18z M22.2,3.8c-2.6,0-5.2,0-7.8,0.1c-1.3,0-2.7,1.3-2.8,2.7c0,0.6-0.1,1.3-0.1,2c0,7.7,0,14.1,0.1,20.7
			c0,0.9,0.4,1.7,1.3,2.3c0.7,0.5,1.5,0.6,2.3,0.6c1.5,0,3.2,0,5,0c0.7,0,1.3,0,2,0c2.2,0,4.8,0,7.5-0.1c1.1,0,2-0.6,2.5-1.6
			c0.4-0.7,0.4-1.4,0.4-2c0-1.7,0-3.5,0-5.1c0-0.6,0-2.4,0-2.4h0l0-1.9c0-2,0-3.9,0-5.9c0-1.1-0.7-1.8-1.9-1.8c-0.6,0-1.3,0-1.9,0
			c-1,0-1.9,0-2.9,0c-0.2,0-0.4-0.1-0.6-0.3c-0.1-0.1-0.1-0.3-0.1-0.6c0-0.1,0-0.1,0-0.2c0-0.9,0-1.8-0.1-2.7c0-0.5,0-1,0-1.5
			c0-0.3,0-0.6-0.1-0.9c-0.2-0.8-0.8-1.3-1.5-1.3h0L22.2,3.8z"/>
		<path class="st0" d="M27.5,23.9c-1,0.1-1.9-0.3-2.8-0.9c-0.3-0.2-0.5-0.3-0.9-0.1c-1.4,0.5-2.7,0.9-4.1,1.4
			c-0.3,0.1-0.5,0.3-0.6,0.6c-0.5,0.8-1.1,1.6-1.8,2.3c-0.5,0.5-1.1,0.8-1.9,0.5c-0.6-0.2-0.9-0.8-0.7-1.4c0.2-0.5,0.5-0.8,0.9-1.1
			c0.9-0.5,1.8-1,2.7-1.6c0.2-0.1,0.3-0.2,0.4-0.4c0.8-1.5,1.4-3,1.9-4.6c0-0.1,0-0.3,0-0.4c-0.4-1-0.9-1.9-1-3c0-0.4,0-0.8,0.1-1.1
			c0.1-0.6,0.8-1,1.3-1c0.6,0.1,1.2,0.6,1.3,1.2c0.2,1.2,0,2.4-0.3,3.5c-0.1,0.3-0.1,0.5,0.1,0.7c0.6,1,1.3,1.8,2.1,2.7
			c0.3,0.3,0.5,0.3,0.9,0.3c0.7-0.1,1.5-0.2,2.2-0.2c0.4,0,0.9,0.1,1.3,0.3c0.5,0.2,0.6,0.5,0.7,1.1c0,0.4,0,0.8-0.4,1
			c-0.2,0.2-0.6,0.2-0.8,0.3C27.9,23.9,27.7,23.9,27.5,23.9z M23.3,21.8c-0.6-0.7-1.2-1.4-1.8-2.1c-0.4,1.1-0.8,2-1.2,3
			c0,0,0.1,0.1,0.1,0.1C21.3,22.5,22.3,22.2,23.3,21.8z M21.2,16.4c0.2-0.6,0.2-1.2,0.1-1.8c0-0.1-0.2-0.3-0.3-0.4
			c-0.1,0.1-0.2,0.3-0.3,0.4c0,0,0,0.1,0,0.1c0.1,0.5,0.2,1,0.3,1.5C21.1,16.3,21.1,16.3,21.2,16.4z M26.2,22.5
			c0.1,0.1,0.2,0.1,0.2,0.2c0.5,0.1,1,0.1,1.5,0.1c0.1,0,0.2-0.1,0.3-0.2c-0.1-0.1-0.2-0.2-0.3-0.2c-0.5,0-1,0-1.5,0
			C26.4,22.4,26.3,22.4,26.2,22.5z M17.2,25.6c-0.5,0.2-0.9,0.4-1.2,0.9c0,0,0,0.2,0,0.2c0.1,0,0.1,0.1,0.2,0
			C16.6,26.4,17,26.1,17.2,25.6z"/>
	</g>
</g>
</svg>
