<?xml version="1.0" encoding="utf-8"?>
<!-- Generator: Adobe Illustrator 27.9.0, SVG Export Plug-In . SVG Version: 6.00 Build 0)  -->
<svg version="1.1" id="S_SDKTailArrowTool_Lg_N_2x" xmlns="http://www.w3.org/2000/svg" xmlns:xlink="http://www.w3.org/1999/xlink"
	 x="0px" y="0px" viewBox="0 0 44 36" style="enable-background:new 0 0 44 36;" xml:space="preserve">
<style type="text/css">
	.st0{fill:#FFFFFF;}
	.st1{fill-rule:evenodd;clip-rule:evenodd;fill:#FFFFFF;}
</style>
<g>
	<path class="st0" d="M32,11h-1c-0.1-1.2-0.2-2.1-0.3-2.7c-0.1-0.7-0.3-1.3-0.5-2c-0.2-0.6-0.5-1.1-0.8-1.4
		c-0.2-0.3-0.6-0.6-1.1-0.8c-0.5-0.3-1.1-0.4-1.8-0.5c-0.7-0.1-1.5-0.1-2.5-0.1c-1.2,0-1.9,0-2.2,0.1c-0.3,0.1-0.5,0.2-0.5,0.5
		c-0.1,0.2-0.1,0.5-0.1,1v8.8c-1.3-0.5-2.2,0.1-2.9,0.8l-0.5,0.5V5c0-0.4,0-0.6,0-0.8c0-0.1-0.1-0.3-0.2-0.4
		c-0.1-0.1-0.3-0.2-0.5-0.3c-0.3,0-1-0.1-2.1-0.1c-1,0-1.8,0-2.5,0.1c-0.7,0-1.3,0.2-1.8,0.5c-0.5,0.2-0.9,0.5-1.2,0.8
		C9.1,5.2,8.9,5.6,8.6,6.3c-0.2,0.6-0.4,1.3-0.5,2C8.1,8.9,8,9.8,7.9,11H7l0.7-8.7h23.6L32,11z"/>
	<path class="st0" d="M16.7,27.3c-0.2,0.3-0.4,0.7-0.5,1c-2,0-3.3,0-4,0.1v-1.2h1.5c1,0,1.8,0,2.4-0.1
		C16.3,27.2,16.4,27.3,16.7,27.3z"/>
</g>
<g>
	<path class="st1" d="M20,26.7c-0.1-0.4-0.1-0.8-0.3-1.2c-0.1-0.1-0.1-0.2-0.3-0.2c-0.7-0.1-1.4-0.1-2.1-0.2c-0.4,0-0.6-0.2-0.6-0.6
		c0-0.6,0-1.2,0-1.9c0-0.4,0.2-0.6,0.6-0.6c0.7,0,1.4-0.1,2.1-0.3c0.1,0,0.1-0.1,0.2-0.1c0.1-0.2,0.3-0.5,0.3-0.7
		c0.1-0.2,0.1-0.4,0.1-0.6c0-0.1,0-0.1-0.1-0.2c-0.5-0.6-0.9-1.2-1.4-1.8c-0.3-0.3-0.3-0.6,0-0.9c0.4-0.4,0.9-0.9,1.3-1.3
		c0.3-0.3,0.6-0.3,0.9,0c0.6,0.5,1.2,0.9,1.8,1.3c0.1,0.1,0.3,0.1,0.4,0.1c0.2,0,0.5-0.1,0.7-0.1c0.2,0,0.3-0.2,0.4-0.4
		c0.2-0.8,0.3-1.5,0.3-2.3c0-0.4,0.2-0.6,0.6-0.6c0.6,0,1.2,0,1.9,0c0.4,0,0.6,0.2,0.6,0.6c0.1,0.8,0.1,1.6,0.2,2.4
		c0,0.1,0,0.2,0.1,0.2c0.4,0.2,0.8,0.4,1.3,0.4c0.1,0,0.1,0,0.2-0.1c0.7-0.4,1.3-0.8,1.9-1.3c0.3-0.3,0.6-0.3,0.9,0
		c0.4,0.4,0.9,0.9,1.3,1.3c0.3,0.3,0.2,0.6,0,0.8c-0.5,0.6-1,1.2-1.4,1.8c-0.1,0.1-0.1,0.2-0.1,0.3c0.1,0.3,0.1,0.6,0.2,1
		c0,0.2,0.2,0.3,0.3,0.3c0.6,0.1,1.3,0.2,1.9,0.3c0.5,0.1,0.7,0.3,0.7,0.7c0,0.6,0,1.2,0,1.8c0,0.4-0.2,0.6-0.6,0.6
		c-0.7,0.1-1.4,0.1-2.1,0.2c-0.1,0-0.2,0.1-0.2,0.1c-0.1,0.3-0.3,0.6-0.3,1c0,0.2,0,0.3,0.1,0.5c0.5,0.6,0.9,1.1,1.4,1.7
		c0.3,0.3,0.3,0.6,0,0.9c-0.4,0.4-0.8,0.8-1.3,1.3c-0.3,0.3-0.6,0.3-0.9,0c-0.6-0.5-1.2-1-1.9-1.3c-0.1,0-0.2-0.1-0.2,0
		c-0.3,0.1-0.7,0.1-1,0.2c-0.2,0.1-0.3,0.2-0.4,0.4c-0.1,0.7-0.1,1.3-0.2,2c0,0.4-0.2,0.6-0.6,0.6c-0.6,0-1.2,0-1.8,0
		c-0.4,0-0.6-0.2-0.6-0.6c0-0.7-0.1-1.4-0.3-2.1c0-0.1-0.1-0.1-0.1-0.2c-0.3-0.2-0.5-0.3-0.9-0.3c-0.3,0-0.5,0-0.7,0.2
		c-0.6,0.4-1.2,0.8-1.7,1.2c-0.3,0.3-0.6,0.3-0.9,0c-0.4-0.4-0.9-0.9-1.3-1.3c-0.3-0.3-0.3-0.6,0-0.9c0.5-0.6,1-1.2,1.4-1.8
		C20,26.9,20,26.8,20,26.7z M22.1,23.6c0,2.1,1.7,3.8,3.9,3.8c2.1,0,3.8-1.7,3.8-3.8c0-2.1-1.7-3.8-3.8-3.8
		C23.8,19.7,22.1,21.5,22.1,23.6z"/>
</g>
</svg>
