<?xml version="1.0" encoding="utf-8"?>
<!-- Generator: Adobe Illustrator 27.9.0, SVG Export Plug-In . SVG Version: 6.00 Build 0)  -->
<svg version="1.1" id="S_SDKTailArrowTool_Lg_N_2x" xmlns="http://www.w3.org/2000/svg" xmlns:xlink="http://www.w3.org/1999/xlink"
	 x="0px" y="0px" viewBox="0 0 44 36" style="enable-background:new 0 0 44 36;" xml:space="preserve">
<style type="text/css">
	.st0{fill:#1D1D1B;}
</style>
<g>
	<path class="st0" d="M36.8,12.9h-1.2c-0.1-1.4-0.2-2.5-0.3-3.3c-0.1-0.8-0.2-1.5-0.6-2.3c-0.2-0.7-0.6-1.3-0.8-1.6
		c-0.2-0.5-0.7-0.8-1.3-1C32,4.3,31.3,4.1,30.5,4c-0.8-0.1-1.8-0.1-3-0.1c-1.4,0-2.3,0-2.6,0.1c-0.3,0.1-0.6,0.2-0.7,0.6
		c-0.1,0.2-0.1,0.7-0.1,1.2v1.8c-0.5-0.1-1-0.1-1.5-0.1c-0.8,0-1.6,0.1-2.3,0.3V4.8c0-0.2-0.1-0.3-0.2-0.5C19.6,4.1,19.3,4,19,4
		c-0.3-0.1-1.2-0.1-2.4-0.1c-1.2,0-2.2,0-3,0.1c-0.8,0.1-1.5,0.2-2.1,0.6c-0.6,0.2-1,0.6-1.4,0.9C9.6,5.9,9.4,6.4,9.2,7.2
		C8.9,7.8,8.7,8.7,8.6,9.5c-0.1,0.8-0.2,1.9-0.4,3.3H7.1L8,2.5h28L36.8,12.9z"/>
	<path class="st0" d="M24.1,12.8v10.6c-0.4,0.1-0.9,0.2-1.4,0.3l-0.3,0c-0.7,0-1.5-0.2-2.2-0.5V13c0.7-0.3,1.5-0.5,2.2-0.5
		C23,12.5,23.6,12.6,24.1,12.8z"/>
	<path class="st0" d="M30.9,32.1v1.4c-1.3-0.1-4.2-0.1-8.8-0.1c-4.6,0-7.5,0-8.6,0.1v-1.4h1.9c1.5,0,2.7-0.1,3.4-0.2
		c0.7-0.2,1.2-0.4,1.3-0.7c0.1-0.2,0.2-0.7,0.2-1.3v-1.4c0.7,0.1,1.4,0.2,2.2,0.2c0.6,0,1.1,0,1.6-0.1v1.3c0,0.6,0.1,1.1,0.2,1.3
		c0.1,0.2,0.6,0.5,1.3,0.7c0.7,0.2,1.9,0.2,3.4,0.2H30.9z"/>
</g>
<g>
	<g>
		<path class="st0" d="M22.5,26.9c-2.2,0-4.3-0.8-5.9-2.3c-3.6-3.3-3.9-8.9-0.6-12.5s8.9-3.9,12.5-0.6l-1.1,1.2
			c-3-2.7-7.6-2.5-10.3,0.5s-2.5,7.6,0.5,10.3c1.4,1.3,3.3,2,5.2,1.9c1.9-0.1,3.7-0.9,5-2.4c0.5-0.5,0.9-1.1,1.2-1.7l1.4,0.7
			c-0.4,0.7-0.8,1.4-1.4,2.1c-1.6,1.8-3.8,2.8-6.1,2.9C22.8,26.9,22.6,26.9,22.5,26.9z"/>
	</g>
	<g>
		<polygon class="st0" points="26.3,21.7 30.5,17.1 32.4,23.1 		"/>
	</g>
</g>
</svg>
