<?xml version="1.0" encoding="utf-8"?>
<!-- Generator: Adobe Illustrator 27.9.0, SVG Export Plug-In . SVG Version: 6.00 Build 0)  -->
<svg version="1.1" id="S_SDKBothEndsArrowTool_Lg_N_2x"
	 xmlns="http://www.w3.org/2000/svg" xmlns:xlink="http://www.w3.org/1999/xlink" x="0px" y="0px" viewBox="0 0 44 36"
	 style="enable-background:new 0 0 44 36;" xml:space="preserve">
<style type="text/css">
	.st0{fill:#FFFFFF;}
</style>
<g>
	<path class="st0" d="M13,8.9c0.3-1.2,0.4-1.6,3.7-1.6c1,0,1.3,0,1.3-0.7c0-0.4-0.4-0.4-0.6-0.4c-1.1,0-4,0.1-5.1,0.1
		c-1,0-3.6-0.1-4.6-0.1C7.5,6.2,7,6.2,7,6.9c0,0.4,0.3,0.4,1,0.4c0.1,0,0.7,0,1.3,0.1c0.6,0.1,0.9,0.1,0.9,0.6c0,0.1,0,0.2-0.1,0.7
		L5.5,27.1c-0.3,1.4-0.4,1.6-3.2,1.6c-0.6,0-0.9,0-0.9,0.7c0,0.4,0.3,0.4,0.9,0.4h16.1c0.8,0,0.9,0,1.1-0.6l2.7-7.5
		c0.1-0.4,0.1-0.5,0.1-0.5c0-0.1-0.1-0.4-0.4-0.4s-0.3,0.2-0.6,0.7c-1.2,3.2-2.7,7.2-8.7,7.2H9.4c-0.5,0-0.6,0-0.8,0
		c-0.3,0-0.5-0.1-0.5-0.3c0-0.1,0-0.2,0.2-0.8L13,8.9z"/>
	<path class="st0" d="M17.3,10c0.6-0.9,1.6-1.3,2.7-1.3c1.4,0,3.1,0.9,3.1,2.7c0,1.3-0.8,2.3-1.7,3.1c-1.4,1.3-3,2.5-4.5,3.8
		l-0.4,0.3c-0.2,0.2-0.2,0.2-0.2,0.5v0.4h8.1l0.6-3.3h-0.7c-0.1,0.5-0.2,1.3-0.5,1.6c-0.1,0.1-0.4,0.1-0.7,0.1c-0.2,0-0.5,0-0.7,0
		c-1.3,0-2.6,0-3.8,0c1.1-0.8,2.2-1.7,3.3-2.4c1.4-0.9,3.2-2,3.2-4c0-2.6-2.7-3.4-4.6-3.4c-1.6,0-4,0.8-4,3c0,0.5,0.3,1.1,1.1,1.1
		c0.6,0,1-0.5,1-1C18.2,10.4,17.8,10,17.3,10z"/>
	<path class="st0" d="M22.4,29.9h5.5l1.3-5.2H36l1.3,5.2H43L36,7.3h-6.5L22.4,29.9z M30.8,18.5c0.6-2.2,1.2-4.9,1.7-7.3h0.1
		c0.6,2.4,1.2,5,1.8,7.3l0.5,1.9h-4.6L30.8,18.5z"/>
</g>
</svg>
